<svg xmlns="http://www.w3.org/2000/svg" xmlns:xlink="http://www.w3.org/1999/xlink" version="1.1" width="674px" height="668px" viewBox="-0.5 -0.5 674 668"><defs><style type="text/css">ul { margin-top: 0px; margin-bottom: 10px } &#xa;ol { margin-top: 0px; margin-bottom: 10px } &#xa;ul { margin-top: 0px; margin-bottom: 10px } &#xa;ol { margin-top: 0px; margin-bottom: 10px } &#xa;ul { margin-top: 0px; margin-bottom: 10px } &#xa;ol { margin-top: 0px; margin-bottom: 10px } &#xa;</style></defs><g><ellipse cx="110" cy="333" rx="10.875" ry="10.875" fill="#7acff5" stroke="none" pointer-events="none"/><rect x="0" y="322" width="43.5" height="87" fill-opacity="0" fill="#7acff5" stroke="none" pointer-events="none"/><ellipse cx="110" cy="333" rx="10.875" ry="10.875" fill="transparent" stroke="#000000" pointer-events="none"/><path d="M 109.5 343.75 L 109.5 380" fill="none" stroke="#000000" stroke-miterlimit="10" pointer-events="none"/><path d="M 87.75 356.8 L 131.25 356.8" fill="none" stroke="#000000" stroke-miterlimit="10" pointer-events="none"/><path d="M 109.5 380 L 87.75 409" fill="none" stroke="#000000" stroke-miterlimit="10" pointer-events="none"/><path d="M 109.5 380 L 131.25 409" fill="none" stroke="#000000" stroke-miterlimit="10" pointer-events="none"/><g fill="#000000" font-family="Helvetica" text-anchor="middle" font-size="12px"><text x="109" y="427.5">User</text></g><ellipse cx="488" cy="42" rx="146" ry="41.5" fill="#7acff5" stroke="#000000" pointer-events="none"/><g fill="#000000" font-family="Helvetica" text-anchor="middle" font-size="12px"><text x="487" y="45">Can see site from all devices and browsers</text></g><ellipse cx="499" cy="322" rx="168" ry="49" fill="#7acff5" stroke="#000000" pointer-events="none"/><g fill="#000000" font-family="Helvetica" text-anchor="middle" font-size="12px"><text x="498.5" y="325.5">User can connect with us</text></g><ellipse cx="502" cy="474" rx="165.5" ry="49" fill="#7acff5" stroke="#000000" pointer-events="none"/><g fill="#000000" font-family="Helvetica" text-anchor="middle" font-size="12px"><text x="501" y="477.5">User can read information about Fest</text></g><ellipse cx="504" cy="621" rx="167.5" ry="44" fill="#7acff5" stroke="#000000" pointer-events="none"/><g fill="#000000" font-family="Helvetica" text-anchor="middle" font-size="12px"><text x="503" y="624.5">User can assist on TechFest</text></g><path d="M 341.5 42 L 120 42 Q 110 42 110 52 L 110 322" fill="none" stroke="#000000" stroke-miterlimit="10" pointer-events="none"/><ellipse cx="502" cy="186" rx="154" ry="47.5" fill="#7acff5" stroke="#000000" pointer-events="none"/><g fill="#000000" font-family="Helvetica" text-anchor="middle" font-size="12px"><text x="501" y="189">User can enquire sponsors and organisators</text></g><path d="M 347.5 186 L 120 186 Q 110 186 110 196 L 110 322" fill="none" stroke="#000000" stroke-miterlimit="10" pointer-events="none"/><path d="M 331 322 L 285 322 Q 275 322 275 317 L 275 314.5 Q 275 312 265 312 L 120 312 Q 110 312 110 317 L 110 322" fill="none" stroke="#000000" stroke-miterlimit="10" pointer-events="none"/><path d="M 336 474 L 288 474 Q 278 474 278 464 L 278 322 Q 278 312 268 312 L 120 312 Q 110 312 110 317 L 110 322" fill="none" stroke="#000000" stroke-miterlimit="10" pointer-events="none"/><path d="M 336 621 L 288 621 Q 278 621 278 611 L 278 322 Q 278 312 268 312 L 120 312 Q 110 312 110 317 L 110 322" fill="none" stroke="#000000" stroke-miterlimit="10" pointer-events="none"/><path d="M 341.5 42 L 120 42 Q 110 42 110 52 L 110 322" fill="none" stroke="#000000" stroke-miterlimit="10" pointer-events="none"/><path d="M 347.5 186 L 120 186 Q 110 186 110 196 L 110 322" fill="none" stroke="#000000" stroke-miterlimit="10" pointer-events="none"/><path d="M 331 322 L 285 322 Q 275 322 275 317 L 275 314.5 Q 275 312 265 312 L 120 312 Q 110 312 110 317 L 110 322" fill="none" stroke="#000000" stroke-miterlimit="10" pointer-events="none"/><path d="M 336 474 L 288 474 Q 278 474 278 464 L 278 322 Q 278 312 268 312 L 120 312 Q 110 312 110 317 L 110 322" fill="none" stroke="#000000" stroke-miterlimit="10" pointer-events="none"/><path d="M 336 621 L 288 621 Q 278 621 278 611 L 278 322 Q 278 312 268 312 L 120 312 Q 110 312 110 317 L 110 322" fill="none" stroke="#000000" stroke-miterlimit="10" pointer-events="none"/><path d="M 341.5 42 L 120 42 Q 110 42 110 52 L 110 322" fill="none" stroke="#000000" stroke-miterlimit="10" pointer-events="none"/><path d="M 331 322 L 285 322 Q 275 322 275 317 L 275 314.5 Q 275 312 265 312 L 120 312 Q 110 312 110 317 L 110 322" fill="none" stroke="#000000" stroke-miterlimit="10" pointer-events="none"/><path d="M 336 474 L 288 474 Q 278 474 278 464 L 278 322 Q 278 312 268 312 L 120 312 Q 110 312 110 317 L 110 322" fill="none" stroke="#000000" stroke-miterlimit="10" pointer-events="none"/><path d="M 336 621 L 288 621 Q 278 621 278 611 L 278 322 Q 278 312 268 312 L 120 312 Q 110 312 110 317 L 110 322" fill="none" stroke="#000000" stroke-miterlimit="10" pointer-events="none"/><path d="M 347.5 186 L 120 186 Q 110 186 110 196 L 110 322" fill="none" stroke="#000000" stroke-miterlimit="10" pointer-events="none"/></g><g fill="#787878" font-family="Arial,Helvetica" font-size="12px"><text x="6" y="15">Visual Paradigm Online Express Edition</text></g><g fill="#787878" font-family="Arial,Helvetica" text-anchor="end" font-size="12px"><text x="668" y="661">Visual Paradigm Online Express Edition</text></g></svg>